<mxfile host="app.diagrams.net" agent="Mozilla/5.0 (Windows NT 10.0; Win64; x64) AppleWebKit/537.36 (KHTML, like Gecko) Chrome/137.0.0.0 Safari/537.36" version="27.1.6" pages="2">
  <diagram name="第 1 页" id="3Oedz069UJE2HulHmFr5">
    <mxGraphModel grid="1" page="1" gridSize="10" guides="1" tooltips="1" connect="1" arrows="1" fold="1" pageScale="1" pageWidth="827" pageHeight="1169" math="0" shadow="0">
      <root>
        <mxCell id="0" />
        <mxCell id="1" parent="0" />
        <mxCell id="QawxLOxXnZhgWp-B2tOt-358" value="" style="shape=corner;whiteSpace=wrap;html=1;rotation=-180;fillColor=#fff2cc;strokeColor=none;dx=560;dy=228;rounded=1;gradientColor=none;shadow=1;" vertex="1" parent="1">
          <mxGeometry x="2420" y="245.47" width="850" height="614.32" as="geometry" />
        </mxCell>
        <mxCell id="QawxLOxXnZhgWp-B2tOt-21" value="" style="whiteSpace=wrap;strokeWidth=2;fontSize=18;strokeColor=none;rounded=1;shadow=1;fillColor=#d5e8d4;spacingTop=200;fontFamily=Lucida Console;align=center;verticalAlign=middle;labelPosition=center;verticalLabelPosition=middle;labelBackgroundColor=none;labelBorderColor=none;textShadow=0;spacingBottom=0;spacingLeft=0;" vertex="1" parent="1">
          <mxGeometry x="2030" y="243.91" width="660" height="370" as="geometry" />
        </mxCell>
        <mxCell id="QawxLOxXnZhgWp-B2tOt-49" value="&lt;h6&gt;&lt;span style=&quot;color: rgb(51, 51, 51); font-family: &amp;quot;Comic Sans MS&amp;quot;; font-weight: 400; text-align: center; text-wrap-mode: nowrap;&quot;&gt;&lt;font style=&quot;font-size: 18px;&quot;&gt;Step1. Task Decomposition &amp;amp; Context Chunking&lt;/font&gt;&lt;/span&gt;&lt;/h6&gt;" style="rounded=1;whiteSpace=wrap;html=1;fillColor=none;strokeColor=none;gradientColor=none;align=left;labelBackgroundColor=none;" vertex="1" parent="1">
          <mxGeometry x="2056.7400000000002" y="257.18" width="570.1" height="25.78" as="geometry" />
        </mxCell>
        <mxCell id="QawxLOxXnZhgWp-B2tOt-307" value="" style="group" connectable="0" vertex="1" parent="1">
          <mxGeometry x="2200" y="390" width="135.1" height="79.09" as="geometry" />
        </mxCell>
        <mxCell id="QawxLOxXnZhgWp-B2tOt-308" value="" style="shape=mxgraph.networks2.icon;aspect=fixed;fillColor=#EDEDED;strokeColor=#000000;gradientColor=#5B6163;network2IconShadow=1;network2bgFillColor=none;network2Icon=mxgraph.networks2.laptop;network2IconW=1;network2IconH=0.5734;" vertex="1" parent="QawxLOxXnZhgWp-B2tOt-307">
          <mxGeometry y="11.983333333333334" width="114.62959165942657" height="65.7306689834926" as="geometry" />
        </mxCell>
        <mxCell id="QawxLOxXnZhgWp-B2tOt-309" value="&lt;font style=&quot;font-size: 13px;&quot; face=&quot;Comic Sans MS&quot;&gt;Master&lt;/font&gt;&lt;div&gt;&lt;font style=&quot;font-size: 13px;&quot; face=&quot;Comic Sans MS&quot;&gt;SLM&lt;/font&gt;&lt;/div&gt;" style="whiteSpace=wrap;html=1;fillColor=none;strokeColor=none;fontFamily=Helvetica;fontSize=16;" vertex="1" parent="QawxLOxXnZhgWp-B2tOt-307">
          <mxGeometry x="-0.2573851236529886" y="8.18278712121209" width="114.88697678307956" height="62.716409090909096" as="geometry" />
        </mxCell>
        <mxCell id="QawxLOxXnZhgWp-B2tOt-320" value="" style="shape=image;html=1;verticalAlign=top;verticalLabelPosition=bottom;labelBackgroundColor=#ffffff;imageAspect=0;aspect=fixed;image=https://cdn1.iconfinder.com/data/icons/bootstrap-vol-3/16/filetype-pdf-128.png" vertex="1" parent="1">
          <mxGeometry x="2360.0000000000005" y="294.98" width="77.56" height="77.56" as="geometry" />
        </mxCell>
        <mxCell id="QawxLOxXnZhgWp-B2tOt-327" value="" style="rounded=0;whiteSpace=wrap;html=1;fillColor=#d5e8d4;strokeColor=#82b366;rotation=90;gradientColor=#97d077;" vertex="1" parent="1">
          <mxGeometry x="2572.5" y="216.41000000000003" width="25" height="160" as="geometry" />
        </mxCell>
        <mxCell id="QawxLOxXnZhgWp-B2tOt-331" value="" style="rounded=0;whiteSpace=wrap;html=1;fillColor=#d5e8d4;strokeColor=#82b366;rotation=90;gradientColor=#97d077;" vertex="1" parent="1">
          <mxGeometry x="2575" y="237.29999999999998" width="20" height="160" as="geometry" />
        </mxCell>
        <mxCell id="QawxLOxXnZhgWp-B2tOt-332" value="" style="rounded=0;whiteSpace=wrap;html=1;fillColor=#d5e8d4;strokeColor=#82b366;rotation=90;gradientColor=#97d077;" vertex="1" parent="1">
          <mxGeometry x="2575" y="257.17999999999995" width="20" height="160" as="geometry" />
        </mxCell>
        <mxCell id="QawxLOxXnZhgWp-B2tOt-333" value="" style="rounded=0;whiteSpace=wrap;html=1;fillColor=#d5e8d4;strokeColor=#82b366;rotation=90;gradientColor=#97d077;" vertex="1" parent="1">
          <mxGeometry x="2575" y="275.18" width="20" height="160" as="geometry" />
        </mxCell>
        <mxCell id="QawxLOxXnZhgWp-B2tOt-335" value="" style="group" connectable="0" vertex="1" parent="1">
          <mxGeometry x="1700" y="390" width="420" height="240" as="geometry" />
        </mxCell>
        <mxCell id="QawxLOxXnZhgWp-B2tOt-313" value="" style="whiteSpace=wrap;html=1;shape=mxgraph.basic.roundRectCallout;dx=30;dy=15;size=5;boundedLbl=1;strokeColor=none;fillColor=light-dark(#e3ecf2, #39454e);" vertex="1" parent="QawxLOxXnZhgWp-B2tOt-335">
          <mxGeometry x="60" y="3" width="360" height="97" as="geometry" />
        </mxCell>
        <mxCell id="QawxLOxXnZhgWp-B2tOt-306" value="&lt;div style=&quot;line-height: 0%;&quot;&gt;&lt;h1 style=&quot;text-align: left; margin-top: 0px;&quot;&gt;&lt;span style=&quot;background-color: transparent; font-size: 14px; font-weight: 400;&quot;&gt;&lt;font face=&quot;Comic Sans MS&quot;&gt;&lt;i&gt;Using the electronic health records provided,&amp;nbsp;&lt;/i&gt;&lt;/font&gt;&lt;/span&gt;&lt;/h1&gt;&lt;h1 style=&quot;text-align: left; margin-top: 0px;&quot;&gt;&lt;span style=&quot;background-color: transparent; font-size: 14px; font-weight: 400;&quot;&gt;&lt;font face=&quot;Comic Sans MS&quot;&gt;&lt;i&gt;calculate the percentage decrease in the patient&#39;s&amp;nbsp;&lt;/i&gt;&lt;/font&gt;&lt;/span&gt;&lt;/h1&gt;&lt;h1 style=&quot;text-align: left; margin-top: 0px;&quot;&gt;&lt;span style=&quot;background-color: transparent; font-size: 14px; font-weight: 400;&quot;&gt;&lt;font face=&quot;Comic Sans MS&quot;&gt;&lt;i&gt;fasting &lt;/i&gt;&lt;/font&gt;&lt;/span&gt;&lt;i style=&quot;font-size: 14px; font-weight: 400; font-family: &amp;quot;Comic Sans MS&amp;quot;; background-color: transparent; color: light-dark(rgb(0, 0, 0), rgb(255, 255, 255));&quot;&gt;blood glucose level from admission to Day 5.&amp;nbsp;&lt;/i&gt;&lt;/h1&gt;&lt;/div&gt;" style="rounded=0;whiteSpace=wrap;html=1;fillColor=none;strokeColor=none;fontStyle=0" vertex="1" parent="QawxLOxXnZhgWp-B2tOt-335">
          <mxGeometry x="61.23000000000002" y="6.949999999999989" width="358.77" height="83.29" as="geometry" />
        </mxCell>
        <mxCell id="QawxLOxXnZhgWp-B2tOt-339" value="" style="rounded=0;whiteSpace=wrap;html=1;fillColor=#d0cee2;strokeColor=#56517e;rotation=90;" vertex="1" parent="1">
          <mxGeometry x="2578.7" y="334.27" width="10" height="160" as="geometry" />
        </mxCell>
        <mxCell id="QawxLOxXnZhgWp-B2tOt-340" value="" style="rounded=0;whiteSpace=wrap;html=1;fillColor=#d0cee2;strokeColor=#56517e;rotation=90;" vertex="1" parent="1">
          <mxGeometry x="2578.7" y="344.14999999999986" width="10" height="160" as="geometry" />
        </mxCell>
        <mxCell id="QawxLOxXnZhgWp-B2tOt-341" value="" style="rounded=0;whiteSpace=wrap;html=1;fillColor=#d0cee2;strokeColor=#56517e;rotation=90;" vertex="1" parent="1">
          <mxGeometry x="2578.7" y="344.15" width="10" height="160" as="geometry" />
        </mxCell>
        <mxCell id="QawxLOxXnZhgWp-B2tOt-342" value="" style="rounded=0;whiteSpace=wrap;html=1;fillColor=#d0cee2;strokeColor=#56517e;rotation=90;" vertex="1" parent="1">
          <mxGeometry x="2578.7" y="354.03" width="10" height="160" as="geometry" />
        </mxCell>
        <mxCell id="QawxLOxXnZhgWp-B2tOt-343" value="" style="rounded=0;whiteSpace=wrap;html=1;fillColor=#d0cee2;strokeColor=#56517e;rotation=90;" vertex="1" parent="1">
          <mxGeometry x="2578.7" y="362.65999999999997" width="10" height="160" as="geometry" />
        </mxCell>
        <mxCell id="QawxLOxXnZhgWp-B2tOt-344" value="" style="rounded=0;whiteSpace=wrap;html=1;fillColor=#d0cee2;strokeColor=#56517e;rotation=90;" vertex="1" parent="1">
          <mxGeometry x="2578.7" y="372.53999999999996" width="10" height="160" as="geometry" />
        </mxCell>
        <mxCell id="QawxLOxXnZhgWp-B2tOt-345" value="" style="rounded=0;whiteSpace=wrap;html=1;fillColor=#d0cee2;strokeColor=#56517e;rotation=90;" vertex="1" parent="1">
          <mxGeometry x="2578.7" y="381.53999999999996" width="10" height="160" as="geometry" />
        </mxCell>
        <mxCell id="QawxLOxXnZhgWp-B2tOt-348" value="" style="endArrow=classic;html=1;rounded=0;" edge="1" parent="1">
          <mxGeometry width="50" height="50" relative="1" as="geometry">
            <mxPoint x="2450" y="437" as="sourcePoint" />
            <mxPoint x="2506.6" y="437.40999999999997" as="targetPoint" />
          </mxGeometry>
        </mxCell>
        <mxCell id="QawxLOxXnZhgWp-B2tOt-361" value="" style="rounded=1;whiteSpace=wrap;html=1;" vertex="1" parent="1">
          <mxGeometry x="3050" y="302.58000000000004" width="190" height="187.98" as="geometry" />
        </mxCell>
        <mxCell id="QawxLOxXnZhgWp-B2tOt-359" value="HW&lt;div&gt;Config&lt;/div&gt;" style="rhombus;whiteSpace=wrap;html=1;" vertex="1" parent="1">
          <mxGeometry x="1976.7399999999998" y="505" width="80" height="80" as="geometry" />
        </mxCell>
        <mxCell id="QawxLOxXnZhgWp-B2tOt-360" value="" style="edgeStyle=segmentEdgeStyle;endArrow=classic;html=1;curved=0;rounded=0;endSize=8;startSize=8;" edge="1" parent="1" source="QawxLOxXnZhgWp-B2tOt-410">
          <mxGeometry width="50" height="50" relative="1" as="geometry">
            <mxPoint x="2190.96" y="543.91" as="sourcePoint" />
            <mxPoint x="2400" y="473.90999999999997" as="targetPoint" />
          </mxGeometry>
        </mxCell>
        <mxCell id="QawxLOxXnZhgWp-B2tOt-295" value="" style="shape=image;html=1;verticalAlign=top;verticalLabelPosition=bottom;labelBackgroundColor=#ffffff;imageAspect=0;aspect=fixed;image=https://cdn1.iconfinder.com/data/icons/communication-icons-10/750/Untitled-1-07-128.png" vertex="1" parent="1">
          <mxGeometry x="3076.94" y="358.19" width="50.23" height="50.23" as="geometry" />
        </mxCell>
        <mxCell id="QawxLOxXnZhgWp-B2tOt-298" value="" style="sketch=0;outlineConnect=0;fontColor=#232F3E;gradientColor=none;fillColor=light-dark(#444241, #d86d0c);strokeColor=none;dashed=0;verticalLabelPosition=bottom;verticalAlign=top;align=center;html=1;fontSize=12;fontStyle=0;aspect=fixed;pointerEvents=1;shape=mxgraph.aws4.braket_embedded_simulator;" vertex="1" parent="1">
          <mxGeometry x="3083" y="431.92" width="39" height="39" as="geometry" />
        </mxCell>
        <mxCell id="QawxLOxXnZhgWp-B2tOt-369" value="" style="whiteSpace=wrap;strokeWidth=2;fontSize=18;strokeColor=none;rounded=1;shadow=1;fillColor=#fad9d5;spacingTop=200;fontFamily=Lucida Console;align=center;verticalAlign=middle;labelPosition=center;verticalLabelPosition=middle;labelBackgroundColor=none;labelBorderColor=none;textShadow=0;spacingBottom=0;spacingLeft=0;" vertex="1" parent="1">
          <mxGeometry x="2040" y="626.41" width="350" height="230.91" as="geometry" />
        </mxCell>
        <mxCell id="QawxLOxXnZhgWp-B2tOt-370" value="&lt;h6&gt;&lt;span style=&quot;color: rgb(51, 51, 51); font-family: &amp;quot;Comic Sans MS&amp;quot;; font-weight: 400; text-align: center; text-wrap-mode: nowrap;&quot;&gt;&lt;font style=&quot;font-size: 18px;&quot;&gt;Step2. Parallel Execution&lt;/font&gt;&lt;/span&gt;&lt;/h6&gt;" style="rounded=1;whiteSpace=wrap;html=1;fillColor=none;strokeColor=none;gradientColor=none;align=left;labelBackgroundColor=none;" vertex="1" parent="1">
          <mxGeometry x="3020" y="257.17999999999995" width="220" height="25.78" as="geometry" />
        </mxCell>
        <mxCell id="QawxLOxXnZhgWp-B2tOt-371" value="&lt;h6&gt;&lt;span style=&quot;color: rgb(51, 51, 51); font-family: &amp;quot;Comic Sans MS&amp;quot;; font-weight: 400; text-align: center; text-wrap-mode: nowrap;&quot;&gt;&lt;font style=&quot;font-size: 18px;&quot;&gt;Step3. Aggregate Output&lt;/font&gt;&lt;/span&gt;&lt;/h6&gt;" style="rounded=1;whiteSpace=wrap;html=1;fillColor=none;strokeColor=none;gradientColor=none;align=left;labelBackgroundColor=none;" vertex="1" parent="1">
          <mxGeometry x="2063" y="638.04" width="220" height="25.78" as="geometry" />
        </mxCell>
        <mxCell id="QawxLOxXnZhgWp-B2tOt-372" value="" style="endArrow=classic;html=1;rounded=0;" edge="1" parent="1">
          <mxGeometry width="50" height="50" relative="1" as="geometry">
            <mxPoint x="2450.1200000000003" y="333.5008873444318" as="sourcePoint" />
            <mxPoint x="2500" y="332" as="targetPoint" />
            <Array as="points" />
          </mxGeometry>
        </mxCell>
        <mxCell id="QawxLOxXnZhgWp-B2tOt-374" value="&lt;font style=&quot;font-size: 13px;&quot; face=&quot;Comic Sans MS&quot;&gt;Context chunk&lt;/font&gt;" style="whiteSpace=wrap;html=1;fillColor=none;strokeColor=none;fontFamily=Helvetica;fontSize=16;" vertex="1" parent="1">
          <mxGeometry x="2508.5" y="286.41" width="153" height="16.17" as="geometry" />
        </mxCell>
        <mxCell id="QawxLOxXnZhgWp-B2tOt-375" value="" style="endArrow=classic;html=1;rounded=0;fontColor=light-dark(#6d8764, #ededed);strokeColor=#82b366;strokeWidth=2;fillColor=#d5e8d4;gradientColor=#97d077;" edge="1" parent="1">
          <mxGeometry width="50" height="50" relative="1" as="geometry">
            <mxPoint x="2680" y="325" as="sourcePoint" />
            <mxPoint x="2728.8" y="324.75" as="targetPoint" />
            <Array as="points" />
          </mxGeometry>
        </mxCell>
        <mxCell id="QawxLOxXnZhgWp-B2tOt-376" value="" style="endArrow=classic;html=1;rounded=0;fontColor=light-dark(#6d8764, #ededed);strokeColor=#82b366;strokeWidth=2;fillColor=#d5e8d4;gradientColor=#97d077;" edge="1" parent="1">
          <mxGeometry width="50" height="50" relative="1" as="geometry">
            <mxPoint x="2680" y="345" as="sourcePoint" />
            <mxPoint x="2728.8" y="344.89" as="targetPoint" />
            <Array as="points" />
          </mxGeometry>
        </mxCell>
        <mxCell id="QawxLOxXnZhgWp-B2tOt-378" value="" style="shape=image;html=1;verticalAlign=top;verticalLabelPosition=bottom;labelBackgroundColor=#ffffff;imageAspect=0;aspect=fixed;image=https://cdn1.iconfinder.com/data/icons/communication-icons-10/750/Untitled-1-07-128.png" vertex="1" parent="1">
          <mxGeometry x="3164.48" y="358.19" width="50.23" height="50.23" as="geometry" />
        </mxCell>
        <mxCell id="QawxLOxXnZhgWp-B2tOt-379" value="" style="sketch=0;outlineConnect=0;fontColor=#232F3E;gradientColor=none;fillColor=light-dark(#444241, #d86d0c);strokeColor=none;dashed=0;verticalLabelPosition=bottom;verticalAlign=top;align=center;html=1;fontSize=12;fontStyle=0;aspect=fixed;pointerEvents=1;shape=mxgraph.aws4.braket_embedded_simulator;" vertex="1" parent="1">
          <mxGeometry x="3170.2" y="431.92" width="39" height="39" as="geometry" />
        </mxCell>
        <mxCell id="QawxLOxXnZhgWp-B2tOt-380" value="&lt;font style=&quot;font-size: 13px;&quot; face=&quot;Comic Sans MS&quot;&gt;Sub-tasks&lt;/font&gt;" style="whiteSpace=wrap;html=1;fillColor=none;strokeColor=none;fontFamily=Helvetica;fontSize=16;" vertex="1" parent="1">
          <mxGeometry x="2540.56" y="389.17999999999995" width="86.28" height="19.46" as="geometry" />
        </mxCell>
        <mxCell id="QawxLOxXnZhgWp-B2tOt-381" value="" style="endArrow=classic;html=1;rounded=0;exitX=0;exitY=0;exitDx=0;exitDy=0;fontColor=light-dark(#6d8764, #ededed);strokeColor=#56517e;strokeWidth=2;fillColor=#d0cee2;" edge="1" parent="1">
          <mxGeometry width="50" height="50" relative="1" as="geometry">
            <mxPoint x="2678.2000000000003" y="414" as="sourcePoint" />
            <mxPoint x="2730.4" y="414.53999999999996" as="targetPoint" />
            <Array as="points" />
          </mxGeometry>
        </mxCell>
        <mxCell id="QawxLOxXnZhgWp-B2tOt-383" value="" style="endArrow=classic;html=1;rounded=0;exitX=0;exitY=0;exitDx=0;exitDy=0;fontColor=light-dark(#6d8764, #ededed);strokeColor=#56517e;strokeWidth=2;fillColor=#d0cee2;" edge="1" parent="1">
          <mxGeometry width="50" height="50" relative="1" as="geometry">
            <mxPoint x="2678.2" y="433.76" as="sourcePoint" />
            <mxPoint x="2730.3999999999996" y="434.29999999999995" as="targetPoint" />
            <Array as="points" />
          </mxGeometry>
        </mxCell>
        <mxCell id="QawxLOxXnZhgWp-B2tOt-384" value="" style="endArrow=classic;html=1;rounded=0;exitX=0;exitY=0;exitDx=0;exitDy=0;fontColor=light-dark(#6d8764, #ededed);strokeColor=#56517e;strokeWidth=2;fillColor=#d0cee2;" edge="1" parent="1">
          <mxGeometry width="50" height="50" relative="1" as="geometry">
            <mxPoint x="2678.2" y="452.27" as="sourcePoint" />
            <mxPoint x="2730.3999999999996" y="452.80999999999995" as="targetPoint" />
            <Array as="points" />
          </mxGeometry>
        </mxCell>
        <mxCell id="QawxLOxXnZhgWp-B2tOt-385" value="" style="edgeStyle=segmentEdgeStyle;endArrow=classic;html=1;curved=0;rounded=0;endSize=8;startSize=8;exitX=0.5;exitY=1;exitDx=0;exitDy=0;strokeWidth=2;" edge="1" parent="1" source="QawxLOxXnZhgWp-B2tOt-361">
          <mxGeometry width="50" height="50" relative="1" as="geometry">
            <mxPoint x="2912.72" y="643.9144827586205" as="sourcePoint" />
            <mxPoint x="2690" y="784" as="targetPoint" />
            <Array as="points">
              <mxPoint x="3120" y="783" />
              <mxPoint x="2704" y="783" />
            </Array>
          </mxGeometry>
        </mxCell>
        <mxCell id="QawxLOxXnZhgWp-B2tOt-395" value="&lt;font style=&quot;font-size: 13px;&quot; face=&quot;Comic Sans MS&quot;&gt;Formatted Json output&lt;/font&gt;" style="whiteSpace=wrap;html=1;fillColor=none;strokeColor=none;fontFamily=Helvetica;fontSize=16;" vertex="1" parent="1">
          <mxGeometry x="2475.0999999999995" y="662.9999999999999" width="163.28" height="19.46" as="geometry" />
        </mxCell>
        <mxCell id="QawxLOxXnZhgWp-B2tOt-399" value="&lt;font style=&quot;font-size: 13px;&quot; face=&quot;Comic Sans MS&quot;&gt;Worker SLMs&lt;/font&gt;" style="whiteSpace=wrap;html=1;fillColor=none;strokeColor=none;fontFamily=Helvetica;fontSize=16;" vertex="1" parent="1">
          <mxGeometry x="3091.73" y="313.72999999999996" width="106.54" height="19.46" as="geometry" />
        </mxCell>
        <mxCell id="QawxLOxXnZhgWp-B2tOt-401" value="" style="endArrow=classic;html=1;rounded=0;exitX=0.5;exitY=1;exitDx=0;exitDy=0;" edge="1" parent="1">
          <mxGeometry width="50" height="50" relative="1" as="geometry">
            <mxPoint x="2462.8" y="749.2599999999999" as="sourcePoint" />
            <mxPoint x="2352.3" y="748.84" as="targetPoint" />
            <Array as="points" />
          </mxGeometry>
        </mxCell>
        <mxCell id="QawxLOxXnZhgWp-B2tOt-406" value="" style="group" connectable="0" vertex="1" parent="1">
          <mxGeometry x="2020" y="733" width="210" height="70" as="geometry" />
        </mxCell>
        <mxCell id="QawxLOxXnZhgWp-B2tOt-407" value="" style="whiteSpace=wrap;html=1;shape=mxgraph.basic.roundRectCallout;dx=30;dy=15;size=5;boundedLbl=1;strokeColor=none;fillColor=#f5f5f5;fontColor=#333333;" vertex="1" parent="QawxLOxXnZhgWp-B2tOt-406">
          <mxGeometry x="40" width="100" height="58.62" as="geometry" />
        </mxCell>
        <mxCell id="QawxLOxXnZhgWp-B2tOt-408" value="&lt;div style=&quot;line-height: 0%;&quot;&gt;&lt;h1 style=&quot;text-align: left; margin-top: 0px;&quot;&gt;&lt;font face=&quot;Comic Sans MS&quot;&gt;&lt;span style=&quot;font-size: 14px; font-weight: 400;&quot;&gt;&lt;i style=&quot;line-height: 160%;&quot;&gt;output&lt;/i&gt;&lt;/span&gt;&lt;/font&gt;&lt;/h1&gt;&lt;/div&gt;" style="rounded=0;whiteSpace=wrap;html=1;fillColor=none;strokeColor=none;fontStyle=0" vertex="1" parent="QawxLOxXnZhgWp-B2tOt-406">
          <mxGeometry x="32" y="13.32" width="116" height="31.98" as="geometry" />
        </mxCell>
        <mxCell id="QawxLOxXnZhgWp-B2tOt-405" value="" style="endArrow=classic;html=1;rounded=0;exitX=0.5;exitY=1;exitDx=0;exitDy=0;" edge="1" parent="QawxLOxXnZhgWp-B2tOt-406">
          <mxGeometry width="50" height="50" relative="1" as="geometry">
            <mxPoint x="210" y="18.91999999999996" as="sourcePoint" />
            <mxPoint x="150" y="19.91999999999996" as="targetPoint" />
            <Array as="points" />
          </mxGeometry>
        </mxCell>
        <mxCell id="QawxLOxXnZhgWp-B2tOt-409" value="&lt;div&gt;&lt;font style=&quot;font-size: 14px;&quot;&gt;Latency-aware Parallel Execution&amp;nbsp;&lt;/font&gt;&lt;/div&gt;&lt;div&gt;&lt;font style=&quot;font-size: 14px;&quot;&gt;Early Termination&lt;/font&gt;&lt;/div&gt;" style="rounded=1;whiteSpace=wrap;html=1;fillColor=#f8cecc;gradientColor=#ea6b66;strokeColor=#b85450;" vertex="1" parent="1">
          <mxGeometry x="3010" y="620.98" width="220" height="82.02" as="geometry" />
        </mxCell>
        <mxCell id="QawxLOxXnZhgWp-B2tOt-411" value="" style="edgeStyle=segmentEdgeStyle;endArrow=classic;html=1;curved=0;rounded=0;endSize=8;startSize=8;" edge="1" parent="1">
          <mxGeometry width="50" height="50" relative="1" as="geometry">
            <mxPoint x="2063" y="542.4499999999999" as="sourcePoint" />
            <mxPoint x="2102.04" y="541.54" as="targetPoint" />
          </mxGeometry>
        </mxCell>
        <mxCell id="QawxLOxXnZhgWp-B2tOt-410" value="&amp;nbsp;Adaptive Granularity Scheduler" style="rounded=1;whiteSpace=wrap;html=1;fillColor=#f8cecc;strokeColor=#b85450;gradientColor=#ea6b66;" vertex="1" parent="1">
          <mxGeometry x="2120" y="530" width="197.52" height="30" as="geometry" />
        </mxCell>
        <mxCell id="QawxLOxXnZhgWp-B2tOt-417" value="" style="group" connectable="0" vertex="1" parent="1">
          <mxGeometry x="2760" y="283" width="241.30000000000018" height="323.48" as="geometry" />
        </mxCell>
        <mxCell id="QawxLOxXnZhgWp-B2tOt-412" value="" style="rounded=1;whiteSpace=wrap;html=1;" vertex="1" parent="QawxLOxXnZhgWp-B2tOt-417">
          <mxGeometry width="190" height="71.19" as="geometry" />
        </mxCell>
        <mxCell id="QawxLOxXnZhgWp-B2tOt-414" value="" style="rounded=0;whiteSpace=wrap;html=1;fillColor=#6d8764;strokeColor=#3A5431;fontColor=#ffffff;rotation=90;" vertex="1" parent="QawxLOxXnZhgWp-B2tOt-417">
          <mxGeometry x="90" y="-32.660000000000025" width="20" height="160" as="geometry" />
        </mxCell>
        <mxCell id="QawxLOxXnZhgWp-B2tOt-416" value="" style="rounded=0;whiteSpace=wrap;html=1;fillColor=#d0cee2;strokeColor=#56517e;rotation=90;" vertex="1" parent="QawxLOxXnZhgWp-B2tOt-417">
          <mxGeometry x="95" y="-47.900000000000034" width="10" height="160" as="geometry" />
        </mxCell>
        <mxCell id="QawxLOxXnZhgWp-B2tOt-418" value="" style="group" connectable="0" vertex="1" parent="QawxLOxXnZhgWp-B2tOt-417">
          <mxGeometry x="11.300000000000182" y="11.739999999999995" width="230" height="311.74" as="geometry" />
        </mxCell>
        <mxCell id="QawxLOxXnZhgWp-B2tOt-419" value="" style="rounded=1;whiteSpace=wrap;html=1;" vertex="1" parent="QawxLOxXnZhgWp-B2tOt-418">
          <mxGeometry width="190" height="71.19" as="geometry" />
        </mxCell>
        <mxCell id="QawxLOxXnZhgWp-B2tOt-420" value="" style="rounded=0;whiteSpace=wrap;html=1;fillColor=#6d8764;strokeColor=#3A5431;fontColor=#ffffff;rotation=90;" vertex="1" parent="QawxLOxXnZhgWp-B2tOt-418">
          <mxGeometry x="90" y="-32.660000000000025" width="20" height="160" as="geometry" />
        </mxCell>
        <mxCell id="QawxLOxXnZhgWp-B2tOt-421" value="" style="rounded=0;whiteSpace=wrap;html=1;fillColor=#d0cee2;strokeColor=#56517e;rotation=90;" vertex="1" parent="QawxLOxXnZhgWp-B2tOt-418">
          <mxGeometry x="95" y="-47.900000000000034" width="10" height="160" as="geometry" />
        </mxCell>
        <mxCell id="QawxLOxXnZhgWp-B2tOt-422" value="" style="group" connectable="0" vertex="1" parent="QawxLOxXnZhgWp-B2tOt-418">
          <mxGeometry x="10" y="11.739999999999995" width="220" height="300" as="geometry" />
        </mxCell>
        <mxCell id="QawxLOxXnZhgWp-B2tOt-423" value="" style="rounded=1;whiteSpace=wrap;html=1;" vertex="1" parent="QawxLOxXnZhgWp-B2tOt-422">
          <mxGeometry width="190" height="71.19" as="geometry" />
        </mxCell>
        <mxCell id="QawxLOxXnZhgWp-B2tOt-425" value="" style="rounded=0;whiteSpace=wrap;html=1;fillColor=#d0cee2;strokeColor=#56517e;rotation=90;" vertex="1" parent="QawxLOxXnZhgWp-B2tOt-422">
          <mxGeometry x="95" y="-47.900000000000034" width="10" height="160" as="geometry" />
        </mxCell>
        <mxCell id="QawxLOxXnZhgWp-B2tOt-465" value="" style="rounded=0;whiteSpace=wrap;html=1;fillColor=#d5e8d4;strokeColor=#82b366;rotation=90;gradientColor=#97d077;" vertex="1" parent="QawxLOxXnZhgWp-B2tOt-422">
          <mxGeometry x="90" y="-33.48000000000002" width="20" height="160" as="geometry" />
        </mxCell>
        <mxCell id="QawxLOxXnZhgWp-B2tOt-471" value="&lt;font style=&quot;font-size: 13px;&quot; face=&quot;Comic Sans MS&quot;&gt;Task-Chunk prompt&lt;/font&gt;" style="whiteSpace=wrap;html=1;fillColor=none;strokeColor=none;fontFamily=Helvetica;fontSize=16;" vertex="1" parent="QawxLOxXnZhgWp-B2tOt-422">
          <mxGeometry x="14.36" width="171.28" height="19.46" as="geometry" />
        </mxCell>
        <mxCell id="QawxLOxXnZhgWp-B2tOt-439" value="" style="group" connectable="0" vertex="1" parent="1">
          <mxGeometry x="2760" y="403" width="236.9500000000001" height="163.48000000000002" as="geometry" />
        </mxCell>
        <mxCell id="QawxLOxXnZhgWp-B2tOt-440" value="" style="rounded=1;whiteSpace=wrap;html=1;" vertex="1" parent="QawxLOxXnZhgWp-B2tOt-439">
          <mxGeometry width="190" height="71.19" as="geometry" />
        </mxCell>
        <mxCell id="QawxLOxXnZhgWp-B2tOt-441" value="" style="rounded=0;whiteSpace=wrap;html=1;fillColor=#6d8764;strokeColor=#3A5431;fontColor=#ffffff;rotation=90;" vertex="1" parent="QawxLOxXnZhgWp-B2tOt-439">
          <mxGeometry x="90" y="-32.660000000000025" width="20" height="160" as="geometry" />
        </mxCell>
        <mxCell id="QawxLOxXnZhgWp-B2tOt-442" value="" style="rounded=0;whiteSpace=wrap;html=1;fillColor=#d0cee2;strokeColor=#56517e;rotation=90;" vertex="1" parent="QawxLOxXnZhgWp-B2tOt-439">
          <mxGeometry x="95" y="-47.900000000000034" width="10" height="160" as="geometry" />
        </mxCell>
        <mxCell id="QawxLOxXnZhgWp-B2tOt-443" value="" style="group" connectable="0" vertex="1" parent="QawxLOxXnZhgWp-B2tOt-439">
          <mxGeometry x="11.300000000000182" y="11.739999999999995" width="225.64999999999992" height="151.74" as="geometry" />
        </mxCell>
        <mxCell id="QawxLOxXnZhgWp-B2tOt-444" value="" style="rounded=1;whiteSpace=wrap;html=1;" vertex="1" parent="QawxLOxXnZhgWp-B2tOt-443">
          <mxGeometry width="190" height="71.19" as="geometry" />
        </mxCell>
        <mxCell id="QawxLOxXnZhgWp-B2tOt-445" value="" style="rounded=0;whiteSpace=wrap;html=1;fillColor=#6d8764;strokeColor=#3A5431;fontColor=#ffffff;rotation=90;" vertex="1" parent="QawxLOxXnZhgWp-B2tOt-443">
          <mxGeometry x="90" y="-32.660000000000025" width="20" height="160" as="geometry" />
        </mxCell>
        <mxCell id="QawxLOxXnZhgWp-B2tOt-446" value="" style="rounded=0;whiteSpace=wrap;html=1;fillColor=#d0cee2;strokeColor=#56517e;rotation=90;" vertex="1" parent="QawxLOxXnZhgWp-B2tOt-443">
          <mxGeometry x="95" y="-47.900000000000034" width="10" height="160" as="geometry" />
        </mxCell>
        <mxCell id="QawxLOxXnZhgWp-B2tOt-447" value="" style="group" connectable="0" vertex="1" parent="QawxLOxXnZhgWp-B2tOt-443">
          <mxGeometry x="10" y="11.739999999999995" width="215.64999999999992" height="140" as="geometry" />
        </mxCell>
        <mxCell id="QawxLOxXnZhgWp-B2tOt-448" value="" style="rounded=1;whiteSpace=wrap;html=1;" vertex="1" parent="QawxLOxXnZhgWp-B2tOt-447">
          <mxGeometry width="190" height="71.19" as="geometry" />
        </mxCell>
        <mxCell id="QawxLOxXnZhgWp-B2tOt-449" value="" style="rounded=0;whiteSpace=wrap;html=1;fillColor=#6d8764;strokeColor=#3A5431;fontColor=#ffffff;rotation=90;" vertex="1" parent="QawxLOxXnZhgWp-B2tOt-447">
          <mxGeometry x="90" y="-32.660000000000025" width="20" height="160" as="geometry" />
        </mxCell>
        <mxCell id="QawxLOxXnZhgWp-B2tOt-450" value="" style="rounded=0;whiteSpace=wrap;html=1;fillColor=#d0cee2;strokeColor=#56517e;rotation=90;" vertex="1" parent="QawxLOxXnZhgWp-B2tOt-447">
          <mxGeometry x="95" y="-47.900000000000034" width="10" height="160" as="geometry" />
        </mxCell>
        <mxCell id="QawxLOxXnZhgWp-B2tOt-466" value="" style="rounded=0;whiteSpace=wrap;html=1;fillColor=#d5e8d4;strokeColor=#82b366;rotation=90;gradientColor=#97d077;" vertex="1" parent="QawxLOxXnZhgWp-B2tOt-447">
          <mxGeometry x="90" y="-32.660000000000025" width="20" height="160" as="geometry" />
        </mxCell>
        <mxCell id="QawxLOxXnZhgWp-B2tOt-472" value="&lt;font style=&quot;font-size: 13px;&quot; face=&quot;Comic Sans MS&quot;&gt;Task-Chunk prompt&lt;/font&gt;" style="whiteSpace=wrap;html=1;fillColor=none;strokeColor=none;fontFamily=Helvetica;fontSize=16;" vertex="1" parent="QawxLOxXnZhgWp-B2tOt-447">
          <mxGeometry x="9.359999999999673" width="171.28" height="19.46" as="geometry" />
        </mxCell>
        <mxCell id="QawxLOxXnZhgWp-B2tOt-451" value="" style="group" connectable="0" vertex="1" parent="1">
          <mxGeometry x="2760" y="513" width="211.30000000000018" height="150.82" as="geometry" />
        </mxCell>
        <mxCell id="QawxLOxXnZhgWp-B2tOt-452" value="" style="rounded=1;whiteSpace=wrap;html=1;" vertex="1" parent="QawxLOxXnZhgWp-B2tOt-451">
          <mxGeometry width="190" height="71.19" as="geometry" />
        </mxCell>
        <mxCell id="QawxLOxXnZhgWp-B2tOt-453" value="" style="rounded=0;whiteSpace=wrap;html=1;fillColor=#6d8764;strokeColor=#3A5431;fontColor=#ffffff;rotation=90;" vertex="1" parent="QawxLOxXnZhgWp-B2tOt-451">
          <mxGeometry x="90" y="-32.660000000000025" width="20" height="160" as="geometry" />
        </mxCell>
        <mxCell id="QawxLOxXnZhgWp-B2tOt-454" value="" style="rounded=0;whiteSpace=wrap;html=1;fillColor=#d0cee2;strokeColor=#56517e;rotation=90;" vertex="1" parent="QawxLOxXnZhgWp-B2tOt-451">
          <mxGeometry x="95" y="-47.900000000000034" width="10" height="160" as="geometry" />
        </mxCell>
        <mxCell id="QawxLOxXnZhgWp-B2tOt-455" value="" style="group" connectable="0" vertex="1" parent="QawxLOxXnZhgWp-B2tOt-451">
          <mxGeometry x="11.300000000000182" y="11.739999999999995" width="200" height="139.07999999999998" as="geometry" />
        </mxCell>
        <mxCell id="QawxLOxXnZhgWp-B2tOt-456" value="" style="rounded=1;whiteSpace=wrap;html=1;" vertex="1" parent="QawxLOxXnZhgWp-B2tOt-455">
          <mxGeometry width="190" height="71.19" as="geometry" />
        </mxCell>
        <mxCell id="QawxLOxXnZhgWp-B2tOt-457" value="" style="rounded=0;whiteSpace=wrap;html=1;fillColor=#6d8764;strokeColor=#3A5431;fontColor=#ffffff;rotation=90;" vertex="1" parent="QawxLOxXnZhgWp-B2tOt-455">
          <mxGeometry x="90" y="-32.660000000000025" width="20" height="160" as="geometry" />
        </mxCell>
        <mxCell id="QawxLOxXnZhgWp-B2tOt-458" value="" style="rounded=0;whiteSpace=wrap;html=1;fillColor=#d0cee2;strokeColor=#56517e;rotation=90;" vertex="1" parent="QawxLOxXnZhgWp-B2tOt-455">
          <mxGeometry x="95" y="-47.900000000000034" width="10" height="160" as="geometry" />
        </mxCell>
        <mxCell id="QawxLOxXnZhgWp-B2tOt-459" value="" style="group" connectable="0" vertex="1" parent="QawxLOxXnZhgWp-B2tOt-455">
          <mxGeometry x="10" y="11.739999999999995" width="190" height="127.33999999999997" as="geometry" />
        </mxCell>
        <mxCell id="QawxLOxXnZhgWp-B2tOt-460" value="" style="rounded=1;whiteSpace=wrap;html=1;" vertex="1" parent="QawxLOxXnZhgWp-B2tOt-459">
          <mxGeometry width="190" height="71.19" as="geometry" />
        </mxCell>
        <mxCell id="QawxLOxXnZhgWp-B2tOt-461" value="" style="rounded=0;whiteSpace=wrap;html=1;fillColor=#6d8764;strokeColor=#3A5431;fontColor=#ffffff;rotation=90;" vertex="1" parent="QawxLOxXnZhgWp-B2tOt-459">
          <mxGeometry x="90" y="-32.660000000000025" width="20" height="160" as="geometry" />
        </mxCell>
        <mxCell id="QawxLOxXnZhgWp-B2tOt-462" value="" style="rounded=0;whiteSpace=wrap;html=1;fillColor=#d0cee2;strokeColor=#56517e;rotation=90;" vertex="1" parent="QawxLOxXnZhgWp-B2tOt-459">
          <mxGeometry x="95" y="-47.900000000000034" width="10" height="160" as="geometry" />
        </mxCell>
        <mxCell id="QawxLOxXnZhgWp-B2tOt-467" value="" style="rounded=0;whiteSpace=wrap;html=1;fillColor=#d5e8d4;strokeColor=#82b366;rotation=90;gradientColor=#97d077;" vertex="1" parent="QawxLOxXnZhgWp-B2tOt-459">
          <mxGeometry x="90" y="-32.660000000000025" width="20" height="160" as="geometry" />
        </mxCell>
        <mxCell id="QawxLOxXnZhgWp-B2tOt-473" value="&lt;font style=&quot;font-size: 13px;&quot; face=&quot;Comic Sans MS&quot;&gt;Task-Chunk prompt&lt;/font&gt;" style="whiteSpace=wrap;html=1;fillColor=none;strokeColor=none;fontFamily=Helvetica;fontSize=16;" vertex="1" parent="QawxLOxXnZhgWp-B2tOt-459">
          <mxGeometry x="9.359999999999673" width="171.28" height="19.46" as="geometry" />
        </mxCell>
        <mxCell id="QawxLOxXnZhgWp-B2tOt-464" value="" style="endArrow=classic;html=1;rounded=0;fontColor=light-dark(#6d8764, #ededed);strokeColor=#82b366;strokeWidth=2;fillColor=#d5e8d4;gradientColor=#97d077;" edge="1" parent="1">
          <mxGeometry width="50" height="50" relative="1" as="geometry">
            <mxPoint x="2680" y="305.17" as="sourcePoint" />
            <mxPoint x="2728.8" y="304.92" as="targetPoint" />
            <Array as="points" />
          </mxGeometry>
        </mxCell>
        <mxCell id="QawxLOxXnZhgWp-B2tOt-468" value="" style="endArrow=classic;html=1;rounded=0;exitX=1.003;exitY=0.39;exitDx=0;exitDy=0;exitPerimeter=0;" edge="1" parent="1">
          <mxGeometry width="50" height="50" relative="1" as="geometry">
            <mxPoint x="2130" y="436.34000000000003" as="sourcePoint" />
            <mxPoint x="2200" y="435.18" as="targetPoint" />
            <Array as="points" />
          </mxGeometry>
        </mxCell>
        <mxCell id="QawxLOxXnZhgWp-B2tOt-475" value="" style="shape=image;html=1;verticalAlign=top;verticalLabelPosition=bottom;labelBackgroundColor=#ffffff;imageAspect=0;aspect=fixed;image=https://cdn1.iconfinder.com/data/icons/bootstrap-vol-3/16/filetype-pdf-128.png" vertex="1" parent="1">
          <mxGeometry x="2067" y="1010" width="77.56" height="77.56" as="geometry" />
        </mxCell>
        <mxCell id="QawxLOxXnZhgWp-B2tOt-476" value="" style="edgeStyle=segmentEdgeStyle;endArrow=classic;html=1;curved=0;rounded=0;endSize=8;startSize=8;" edge="1" parent="1">
          <mxGeometry width="50" height="50" relative="1" as="geometry">
            <mxPoint x="2101.91" y="1000.9100000000001" as="sourcePoint" />
            <mxPoint x="2101.56" y="970" as="targetPoint" />
          </mxGeometry>
        </mxCell>
        <mxCell id="QawxLOxXnZhgWp-B2tOt-482" value="" style="whiteSpace=wrap;html=1;shape=mxgraph.basic.document;opacity=50;" vertex="1" parent="1">
          <mxGeometry x="2500" y="693.91" width="91.3" height="110.91" as="geometry" />
        </mxCell>
        <mxCell id="QawxLOxXnZhgWp-B2tOt-483" value="" style="whiteSpace=wrap;html=1;shape=mxgraph.basic.document;opacity=50;" vertex="1" parent="1">
          <mxGeometry x="2515" y="703.91" width="91.3" height="110.91" as="geometry" />
        </mxCell>
        <mxCell id="QawxLOxXnZhgWp-B2tOt-484" value="" style="whiteSpace=wrap;html=1;shape=mxgraph.basic.document;opacity=50;" vertex="1" parent="1">
          <mxGeometry x="2531.3" y="713" width="91.3" height="110.91" as="geometry" />
        </mxCell>
        <mxCell id="QawxLOxXnZhgWp-B2tOt-485" value="" style="group" connectable="0" vertex="1" parent="1">
          <mxGeometry x="2233.67" y="709.82" width="135.1" height="79.09" as="geometry" />
        </mxCell>
        <mxCell id="QawxLOxXnZhgWp-B2tOt-486" value="" style="shape=mxgraph.networks2.icon;aspect=fixed;fillColor=#EDEDED;strokeColor=#000000;gradientColor=#5B6163;network2IconShadow=1;network2bgFillColor=none;network2Icon=mxgraph.networks2.laptop;network2IconW=1;network2IconH=0.5734;" vertex="1" parent="QawxLOxXnZhgWp-B2tOt-485">
          <mxGeometry y="11.983333333333334" width="114.62959165942657" height="65.7306689834926" as="geometry" />
        </mxCell>
        <mxCell id="QawxLOxXnZhgWp-B2tOt-487" value="&lt;font style=&quot;font-size: 13px;&quot; face=&quot;Comic Sans MS&quot;&gt;Master&lt;/font&gt;&lt;div&gt;&lt;font style=&quot;font-size: 13px;&quot; face=&quot;Comic Sans MS&quot;&gt;SLM&lt;/font&gt;&lt;/div&gt;" style="whiteSpace=wrap;html=1;fillColor=none;strokeColor=none;fontFamily=Helvetica;fontSize=16;" vertex="1" parent="QawxLOxXnZhgWp-B2tOt-485">
          <mxGeometry x="-0.2573851236529886" y="8.18278712121209" width="114.88697678307956" height="62.716409090909096" as="geometry" />
        </mxCell>
        <mxCell id="QawxLOxXnZhgWp-B2tOt-491" value="" style="endArrow=none;dashed=1;html=1;dashPattern=1 3;strokeWidth=2;rounded=0;exitX=0.993;exitY=0.556;exitDx=0;exitDy=0;exitPerimeter=0;entryX=0.036;entryY=0.556;entryDx=0;entryDy=0;entryPerimeter=0;" edge="1" parent="1">
          <mxGeometry width="50" height="50" relative="1" as="geometry">
            <mxPoint x="3127.1683900000003" y="383.0878800000001" as="sourcePoint" />
            <mxPoint x="3166.6382799999997" y="383.0878800000001" as="targetPoint" />
          </mxGeometry>
        </mxCell>
        <mxCell id="QawxLOxXnZhgWp-B2tOt-492" value="" style="endArrow=none;dashed=1;html=1;dashPattern=1 3;strokeWidth=2;rounded=0;exitX=0.993;exitY=0.556;exitDx=0;exitDy=0;exitPerimeter=0;entryX=0.036;entryY=0.556;entryDx=0;entryDy=0;entryPerimeter=0;" edge="1" parent="1">
          <mxGeometry width="50" height="50" relative="1" as="geometry">
            <mxPoint x="3127.17" y="451.24000000000007" as="sourcePoint" />
            <mxPoint x="3166.17" y="451.24000000000007" as="targetPoint" />
          </mxGeometry>
        </mxCell>
        <mxCell id="QawxLOxXnZhgWp-B2tOt-493" value="" style="endArrow=classic;html=1;rounded=0;exitX=0;exitY=0;exitDx=0;exitDy=0;fontColor=light-dark(#6d8764, #ededed);strokeColor=#000000;strokeWidth=2;fillColor=#d0cee2;" edge="1" parent="1">
          <mxGeometry width="50" height="50" relative="1" as="geometry">
            <mxPoint x="2990" y="341.84000000000003" as="sourcePoint" />
            <mxPoint x="3042.2" y="342.38" as="targetPoint" />
            <Array as="points" />
          </mxGeometry>
        </mxCell>
        <mxCell id="QawxLOxXnZhgWp-B2tOt-494" value="" style="endArrow=classic;html=1;rounded=0;exitX=0;exitY=0;exitDx=0;exitDy=0;fontColor=light-dark(#6d8764, #ededed);strokeColor=#000000;strokeWidth=2;fillColor=#d0cee2;" edge="1" parent="1">
          <mxGeometry width="50" height="50" relative="1" as="geometry">
            <mxPoint x="2990" y="372.54" as="sourcePoint" />
            <mxPoint x="3042.2" y="373.08" as="targetPoint" />
            <Array as="points" />
          </mxGeometry>
        </mxCell>
        <mxCell id="QawxLOxXnZhgWp-B2tOt-495" value="" style="endArrow=classic;html=1;rounded=0;exitX=0;exitY=0;exitDx=0;exitDy=0;fontColor=light-dark(#6d8764, #ededed);strokeColor=#000000;strokeWidth=2;fillColor=#d0cee2;" edge="1" parent="1">
          <mxGeometry width="50" height="50" relative="1" as="geometry">
            <mxPoint x="2990" y="403" as="sourcePoint" />
            <mxPoint x="3042.2" y="403.53999999999996" as="targetPoint" />
            <Array as="points" />
          </mxGeometry>
        </mxCell>
        <mxCell id="l4c7gHCO20DcaZoLB2im-1" value="MoA" style="rounded=1;whiteSpace=wrap;html=1;fillColor=#f8cecc;strokeColor=#b85450;gradientColor=#ea6b66;" vertex="1" parent="1">
          <mxGeometry x="930" y="163.51999999999998" width="241.3" height="296.48" as="geometry" />
        </mxCell>
        <mxCell id="UF2Du5KSfY4s6GD9SysF-2" value="Parser" style="rounded=1;whiteSpace=wrap;html=1;fillColor=#f8cecc;strokeColor=#b85450;gradientColor=#ea6b66;" vertex="1" parent="1">
          <mxGeometry x="2343.78" y="403" width="110" height="60" as="geometry" />
        </mxCell>
        <mxCell id="UF2Du5KSfY4s6GD9SysF-3" value="" style="endArrow=classic;html=1;rounded=0;" edge="1" parent="1">
          <mxGeometry width="50" height="50" relative="1" as="geometry">
            <mxPoint x="2314.63" y="435.36" as="sourcePoint" />
            <mxPoint x="2354.63" y="434.33000000000004" as="targetPoint" />
            <Array as="points" />
          </mxGeometry>
        </mxCell>
        <mxCell id="KkU-2ouMoLhyCoNQwxfl-1" value="" style="whiteSpace=wrap;strokeWidth=2;fontSize=18;strokeColor=none;rounded=1;shadow=1;fillColor=#d5e8d4;spacingTop=200;fontFamily=Lucida Console;align=center;verticalAlign=middle;labelPosition=center;verticalLabelPosition=middle;labelBackgroundColor=none;labelBorderColor=none;textShadow=0;spacingBottom=0;spacingLeft=0;" vertex="1" parent="1">
          <mxGeometry x="1070" y="709.96" width="660" height="370" as="geometry" />
        </mxCell>
        <mxCell id="KkU-2ouMoLhyCoNQwxfl-2" value="&lt;h6&gt;&lt;span style=&quot;color: rgb(51, 51, 51); font-family: &amp;quot;Comic Sans MS&amp;quot;; font-weight: 400; text-align: center; text-wrap-mode: nowrap;&quot;&gt;&lt;font style=&quot;font-size: 18px;&quot;&gt;Step1. Task Decomposition &amp;amp; Context Chunking&lt;/font&gt;&lt;/span&gt;&lt;/h6&gt;" style="rounded=1;whiteSpace=wrap;html=1;fillColor=none;strokeColor=none;gradientColor=none;align=left;labelBackgroundColor=none;" vertex="1" parent="1">
          <mxGeometry x="1096.7400000000002" y="723.23" width="570.1" height="25.78" as="geometry" />
        </mxCell>
        <mxCell id="KkU-2ouMoLhyCoNQwxfl-3" value="" style="group" connectable="0" vertex="1" parent="1">
          <mxGeometry x="1240" y="856.0500000000001" width="135.1" height="79.09" as="geometry" />
        </mxCell>
        <mxCell id="KkU-2ouMoLhyCoNQwxfl-4" value="" style="shape=mxgraph.networks2.icon;aspect=fixed;fillColor=#EDEDED;strokeColor=#000000;gradientColor=#5B6163;network2IconShadow=1;network2bgFillColor=none;network2Icon=mxgraph.networks2.laptop;network2IconW=1;network2IconH=0.5734;" vertex="1" parent="KkU-2ouMoLhyCoNQwxfl-3">
          <mxGeometry y="11.983333333333334" width="114.62959165942657" height="65.7306689834926" as="geometry" />
        </mxCell>
        <mxCell id="KkU-2ouMoLhyCoNQwxfl-5" value="&lt;font style=&quot;font-size: 13px;&quot; face=&quot;Comic Sans MS&quot;&gt;Master&lt;/font&gt;&lt;div&gt;&lt;font style=&quot;font-size: 13px;&quot; face=&quot;Comic Sans MS&quot;&gt;SLM&lt;/font&gt;&lt;/div&gt;" style="whiteSpace=wrap;html=1;fillColor=none;strokeColor=none;fontFamily=Helvetica;fontSize=16;" vertex="1" parent="KkU-2ouMoLhyCoNQwxfl-3">
          <mxGeometry x="-0.2573851236529886" y="8.18278712121209" width="114.88697678307956" height="62.716409090909096" as="geometry" />
        </mxCell>
        <mxCell id="KkU-2ouMoLhyCoNQwxfl-6" value="" style="shape=image;html=1;verticalAlign=top;verticalLabelPosition=bottom;labelBackgroundColor=#ffffff;imageAspect=0;aspect=fixed;image=https://cdn1.iconfinder.com/data/icons/bootstrap-vol-3/16/filetype-pdf-128.png" vertex="1" parent="1">
          <mxGeometry x="1400.0000000000005" y="761.0300000000001" width="77.56" height="77.56" as="geometry" />
        </mxCell>
        <mxCell id="KkU-2ouMoLhyCoNQwxfl-7" value="" style="rounded=0;whiteSpace=wrap;html=1;fillColor=#d5e8d4;strokeColor=#82b366;rotation=90;gradientColor=#97d077;" vertex="1" parent="1">
          <mxGeometry x="1612.5" y="682.46" width="25" height="160" as="geometry" />
        </mxCell>
        <mxCell id="KkU-2ouMoLhyCoNQwxfl-8" value="" style="rounded=0;whiteSpace=wrap;html=1;fillColor=#d5e8d4;strokeColor=#82b366;rotation=90;gradientColor=#97d077;" vertex="1" parent="1">
          <mxGeometry x="1615" y="703.35" width="20" height="160" as="geometry" />
        </mxCell>
        <mxCell id="KkU-2ouMoLhyCoNQwxfl-9" value="" style="rounded=0;whiteSpace=wrap;html=1;fillColor=#d5e8d4;strokeColor=#82b366;rotation=90;gradientColor=#97d077;" vertex="1" parent="1">
          <mxGeometry x="1615" y="723.23" width="20" height="160" as="geometry" />
        </mxCell>
        <mxCell id="KkU-2ouMoLhyCoNQwxfl-10" value="" style="rounded=0;whiteSpace=wrap;html=1;fillColor=#d5e8d4;strokeColor=#82b366;rotation=90;gradientColor=#97d077;" vertex="1" parent="1">
          <mxGeometry x="1615" y="741.23" width="20" height="160" as="geometry" />
        </mxCell>
        <mxCell id="KkU-2ouMoLhyCoNQwxfl-11" value="" style="rounded=0;whiteSpace=wrap;html=1;fillColor=#d0cee2;strokeColor=#56517e;rotation=90;" vertex="1" parent="1">
          <mxGeometry x="1618.6999999999998" y="800.32" width="10" height="160" as="geometry" />
        </mxCell>
        <mxCell id="KkU-2ouMoLhyCoNQwxfl-12" value="" style="rounded=0;whiteSpace=wrap;html=1;fillColor=#d0cee2;strokeColor=#56517e;rotation=90;" vertex="1" parent="1">
          <mxGeometry x="1618.6999999999998" y="810.1999999999999" width="10" height="160" as="geometry" />
        </mxCell>
        <mxCell id="KkU-2ouMoLhyCoNQwxfl-13" value="" style="rounded=0;whiteSpace=wrap;html=1;fillColor=#d0cee2;strokeColor=#56517e;rotation=90;" vertex="1" parent="1">
          <mxGeometry x="1618.6999999999998" y="810.2" width="10" height="160" as="geometry" />
        </mxCell>
        <mxCell id="KkU-2ouMoLhyCoNQwxfl-14" value="" style="rounded=0;whiteSpace=wrap;html=1;fillColor=#d0cee2;strokeColor=#56517e;rotation=90;" vertex="1" parent="1">
          <mxGeometry x="1618.6999999999998" y="820.08" width="10" height="160" as="geometry" />
        </mxCell>
        <mxCell id="KkU-2ouMoLhyCoNQwxfl-15" value="" style="rounded=0;whiteSpace=wrap;html=1;fillColor=#d0cee2;strokeColor=#56517e;rotation=90;" vertex="1" parent="1">
          <mxGeometry x="1618.6999999999998" y="828.71" width="10" height="160" as="geometry" />
        </mxCell>
        <mxCell id="KkU-2ouMoLhyCoNQwxfl-16" value="" style="rounded=0;whiteSpace=wrap;html=1;fillColor=#d0cee2;strokeColor=#56517e;rotation=90;" vertex="1" parent="1">
          <mxGeometry x="1618.6999999999998" y="838.59" width="10" height="160" as="geometry" />
        </mxCell>
        <mxCell id="KkU-2ouMoLhyCoNQwxfl-17" value="" style="rounded=0;whiteSpace=wrap;html=1;fillColor=#d0cee2;strokeColor=#56517e;rotation=90;" vertex="1" parent="1">
          <mxGeometry x="1618.6999999999998" y="847.59" width="10" height="160" as="geometry" />
        </mxCell>
        <mxCell id="KkU-2ouMoLhyCoNQwxfl-18" value="" style="endArrow=classic;html=1;rounded=0;" edge="1" parent="1">
          <mxGeometry width="50" height="50" relative="1" as="geometry">
            <mxPoint x="1490" y="903.0500000000001" as="sourcePoint" />
            <mxPoint x="1546.6" y="903.46" as="targetPoint" />
          </mxGeometry>
        </mxCell>
        <mxCell id="KkU-2ouMoLhyCoNQwxfl-19" value="" style="edgeStyle=segmentEdgeStyle;endArrow=classic;html=1;curved=0;rounded=0;endSize=8;startSize=8;" edge="1" parent="1" source="KkU-2ouMoLhyCoNQwxfl-24">
          <mxGeometry width="50" height="50" relative="1" as="geometry">
            <mxPoint x="1230.96" y="1009.96" as="sourcePoint" />
            <mxPoint x="1440" y="939.96" as="targetPoint" />
          </mxGeometry>
        </mxCell>
        <mxCell id="KkU-2ouMoLhyCoNQwxfl-20" value="" style="endArrow=classic;html=1;rounded=0;" edge="1" parent="1">
          <mxGeometry width="50" height="50" relative="1" as="geometry">
            <mxPoint x="1490.1200000000003" y="799.5508873444319" as="sourcePoint" />
            <mxPoint x="1540" y="798.0500000000001" as="targetPoint" />
            <Array as="points" />
          </mxGeometry>
        </mxCell>
        <mxCell id="KkU-2ouMoLhyCoNQwxfl-21" value="&lt;font style=&quot;font-size: 13px;&quot; face=&quot;Comic Sans MS&quot;&gt;Context chunk&lt;/font&gt;" style="whiteSpace=wrap;html=1;fillColor=none;strokeColor=none;fontFamily=Helvetica;fontSize=16;" vertex="1" parent="1">
          <mxGeometry x="1548.5" y="752.46" width="153" height="16.17" as="geometry" />
        </mxCell>
        <mxCell id="KkU-2ouMoLhyCoNQwxfl-22" value="&lt;font style=&quot;font-size: 13px;&quot; face=&quot;Comic Sans MS&quot;&gt;Sub-tasks&lt;/font&gt;" style="whiteSpace=wrap;html=1;fillColor=none;strokeColor=none;fontFamily=Helvetica;fontSize=16;" vertex="1" parent="1">
          <mxGeometry x="1580.56" y="855.23" width="86.28" height="19.46" as="geometry" />
        </mxCell>
        <mxCell id="KkU-2ouMoLhyCoNQwxfl-23" value="" style="edgeStyle=segmentEdgeStyle;endArrow=classic;html=1;curved=0;rounded=0;endSize=8;startSize=8;" edge="1" parent="1">
          <mxGeometry width="50" height="50" relative="1" as="geometry">
            <mxPoint x="1103" y="1008.5" as="sourcePoint" />
            <mxPoint x="1142.04" y="1007.5900000000001" as="targetPoint" />
          </mxGeometry>
        </mxCell>
        <mxCell id="KkU-2ouMoLhyCoNQwxfl-24" value="&amp;nbsp;Adaptive Granularity Scheduler" style="rounded=1;whiteSpace=wrap;html=1;fillColor=#f8cecc;strokeColor=#b85450;gradientColor=#ea6b66;" vertex="1" parent="1">
          <mxGeometry x="1160" y="996.0500000000002" width="197.52" height="30" as="geometry" />
        </mxCell>
        <mxCell id="KkU-2ouMoLhyCoNQwxfl-26" value="Parser" style="rounded=1;whiteSpace=wrap;html=1;fillColor=#f8cecc;strokeColor=#b85450;gradientColor=#ea6b66;" vertex="1" parent="1">
          <mxGeometry x="1383.7800000000002" y="869.0500000000001" width="110" height="60" as="geometry" />
        </mxCell>
        <mxCell id="KkU-2ouMoLhyCoNQwxfl-27" value="" style="endArrow=classic;html=1;rounded=0;" edge="1" parent="1">
          <mxGeometry width="50" height="50" relative="1" as="geometry">
            <mxPoint x="1354.63" y="901.4100000000001" as="sourcePoint" />
            <mxPoint x="1394.63" y="900.3800000000001" as="targetPoint" />
            <Array as="points" />
          </mxGeometry>
        </mxCell>
        <mxCell id="KkU-2ouMoLhyCoNQwxfl-28" value="" style="whiteSpace=wrap;html=1;shape=mxgraph.basic.roundRectCallout;dx=30;dy=15;size=5;boundedLbl=1;strokeColor=none;fillColor=light-dark(#e3ecf2, #39454e);" vertex="1" parent="1">
          <mxGeometry x="1096.74" y="761.03" width="360" height="97" as="geometry" />
        </mxCell>
        <mxCell id="KkU-2ouMoLhyCoNQwxfl-29" value="&lt;div style=&quot;line-height: 0%;&quot;&gt;&lt;h1 style=&quot;text-align: left; margin-top: 0px;&quot;&gt;&lt;span style=&quot;background-color: transparent; font-size: 14px; font-weight: 400;&quot;&gt;&lt;font face=&quot;Comic Sans MS&quot;&gt;&lt;i&gt;Using the electronic health records provided,&amp;nbsp;&lt;/i&gt;&lt;/font&gt;&lt;/span&gt;&lt;/h1&gt;&lt;h1 style=&quot;text-align: left; margin-top: 0px;&quot;&gt;&lt;span style=&quot;background-color: transparent; font-size: 14px; font-weight: 400;&quot;&gt;&lt;font face=&quot;Comic Sans MS&quot;&gt;&lt;i&gt;calculate the percentage decrease in the patient&#39;s&amp;nbsp;&lt;/i&gt;&lt;/font&gt;&lt;/span&gt;&lt;/h1&gt;&lt;h1 style=&quot;text-align: left; margin-top: 0px;&quot;&gt;&lt;span style=&quot;background-color: transparent; font-size: 14px; font-weight: 400;&quot;&gt;&lt;font face=&quot;Comic Sans MS&quot;&gt;&lt;i&gt;fasting &lt;/i&gt;&lt;/font&gt;&lt;/span&gt;&lt;i style=&quot;font-size: 14px; font-weight: 400; font-family: &amp;quot;Comic Sans MS&amp;quot;; background-color: transparent; color: light-dark(rgb(0, 0, 0), rgb(255, 255, 255));&quot;&gt;blood glucose level from admission to Day 5.&amp;nbsp;&lt;/i&gt;&lt;/h1&gt;&lt;/div&gt;" style="rounded=0;whiteSpace=wrap;html=1;fillColor=none;strokeColor=none;fontStyle=0" vertex="1" parent="1">
          <mxGeometry x="1097.97" y="764.98" width="358.77" height="83.29" as="geometry" />
        </mxCell>
        <mxCell id="KkU-2ouMoLhyCoNQwxfl-30" value="HW&lt;div&gt;Config&lt;/div&gt;" style="rhombus;whiteSpace=wrap;html=1;" vertex="1" parent="1">
          <mxGeometry x="1029.9999999999998" y="971.05" width="80" height="80" as="geometry" />
        </mxCell>
        <mxCell id="KkU-2ouMoLhyCoNQwxfl-31" value="" style="edgeStyle=segmentEdgeStyle;endArrow=classic;html=1;curved=0;rounded=0;endSize=8;startSize=8;" edge="1" parent="1">
          <mxGeometry width="50" height="50" relative="1" as="geometry">
            <mxPoint x="1104" y="1009.24" as="sourcePoint" />
            <mxPoint x="1143.04" y="1008.3299999999999" as="targetPoint" />
          </mxGeometry>
        </mxCell>
        <mxCell id="KkU-2ouMoLhyCoNQwxfl-32" value="" style="endArrow=classic;html=1;rounded=0;exitX=0.21;exitY=0.998;exitDx=0;exitDy=0;exitPerimeter=0;" edge="1" parent="1" source="KkU-2ouMoLhyCoNQwxfl-29">
          <mxGeometry width="50" height="50" relative="1" as="geometry">
            <mxPoint x="1171" y="903.1300000000001" as="sourcePoint" />
            <mxPoint x="1241" y="901.97" as="targetPoint" />
            <Array as="points" />
          </mxGeometry>
        </mxCell>
        <mxCell id="KkU-2ouMoLhyCoNQwxfl-34" value="" style="shape=corner;whiteSpace=wrap;html=1;rotation=-180;fillColor=#fff2cc;strokeColor=none;dx=560;dy=228;rounded=1;gradientColor=none;shadow=1;" vertex="1" parent="1">
          <mxGeometry x="2736.22" y="1060.0000000000002" width="850" height="614.32" as="geometry" />
        </mxCell>
        <mxCell id="KkU-2ouMoLhyCoNQwxfl-48" value="" style="rounded=1;whiteSpace=wrap;html=1;" vertex="1" parent="1">
          <mxGeometry x="3366.22" y="1117.1100000000001" width="190" height="187.98" as="geometry" />
        </mxCell>
        <mxCell id="KkU-2ouMoLhyCoNQwxfl-49" value="" style="shape=image;html=1;verticalAlign=top;verticalLabelPosition=bottom;labelBackgroundColor=#ffffff;imageAspect=0;aspect=fixed;image=https://cdn1.iconfinder.com/data/icons/communication-icons-10/750/Untitled-1-07-128.png" vertex="1" parent="1">
          <mxGeometry x="3393.16" y="1172.7200000000003" width="50.23" height="50.23" as="geometry" />
        </mxCell>
        <mxCell id="KkU-2ouMoLhyCoNQwxfl-50" value="" style="sketch=0;outlineConnect=0;fontColor=#232F3E;gradientColor=none;fillColor=light-dark(#444241, #d86d0c);strokeColor=none;dashed=0;verticalLabelPosition=bottom;verticalAlign=top;align=center;html=1;fontSize=12;fontStyle=0;aspect=fixed;pointerEvents=1;shape=mxgraph.aws4.braket_embedded_simulator;" vertex="1" parent="1">
          <mxGeometry x="3399.22" y="1246.4500000000003" width="39" height="39" as="geometry" />
        </mxCell>
        <mxCell id="KkU-2ouMoLhyCoNQwxfl-51" value="&lt;h6&gt;&lt;span style=&quot;color: rgb(51, 51, 51); font-family: &amp;quot;Comic Sans MS&amp;quot;; font-weight: 400; text-align: center; text-wrap-mode: nowrap;&quot;&gt;&lt;font style=&quot;font-size: 18px;&quot;&gt;Step2. Parallel Execution&lt;/font&gt;&lt;/span&gt;&lt;/h6&gt;" style="rounded=1;whiteSpace=wrap;html=1;fillColor=none;strokeColor=none;gradientColor=none;align=left;labelBackgroundColor=none;" vertex="1" parent="1">
          <mxGeometry x="3336.22" y="1071.71" width="220" height="25.78" as="geometry" />
        </mxCell>
        <mxCell id="KkU-2ouMoLhyCoNQwxfl-56" value="" style="shape=image;html=1;verticalAlign=top;verticalLabelPosition=bottom;labelBackgroundColor=#ffffff;imageAspect=0;aspect=fixed;image=https://cdn1.iconfinder.com/data/icons/communication-icons-10/750/Untitled-1-07-128.png" vertex="1" parent="1">
          <mxGeometry x="3480.7" y="1172.7200000000003" width="50.23" height="50.23" as="geometry" />
        </mxCell>
        <mxCell id="KkU-2ouMoLhyCoNQwxfl-57" value="" style="sketch=0;outlineConnect=0;fontColor=#232F3E;gradientColor=none;fillColor=light-dark(#444241, #d86d0c);strokeColor=none;dashed=0;verticalLabelPosition=bottom;verticalAlign=top;align=center;html=1;fontSize=12;fontStyle=0;aspect=fixed;pointerEvents=1;shape=mxgraph.aws4.braket_embedded_simulator;" vertex="1" parent="1">
          <mxGeometry x="3486.4199999999996" y="1246.4500000000003" width="39" height="39" as="geometry" />
        </mxCell>
        <mxCell id="KkU-2ouMoLhyCoNQwxfl-62" value="" style="edgeStyle=segmentEdgeStyle;endArrow=classic;html=1;curved=0;rounded=0;endSize=8;startSize=8;exitX=0.5;exitY=1;exitDx=0;exitDy=0;strokeWidth=2;" edge="1" parent="1" source="KkU-2ouMoLhyCoNQwxfl-48">
          <mxGeometry width="50" height="50" relative="1" as="geometry">
            <mxPoint x="3228.9399999999996" y="1458.4444827586208" as="sourcePoint" />
            <mxPoint x="3006.22" y="1598.5300000000002" as="targetPoint" />
            <Array as="points">
              <mxPoint x="3436.22" y="1597.5300000000002" />
              <mxPoint x="3020.22" y="1597.5300000000002" />
            </Array>
          </mxGeometry>
        </mxCell>
        <mxCell id="KkU-2ouMoLhyCoNQwxfl-63" value="&lt;font style=&quot;font-size: 13px;&quot; face=&quot;Comic Sans MS&quot;&gt;Formatted Json output&lt;/font&gt;" style="whiteSpace=wrap;html=1;fillColor=none;strokeColor=none;fontFamily=Helvetica;fontSize=16;" vertex="1" parent="1">
          <mxGeometry x="2791.3199999999993" y="1477.5300000000002" width="163.28" height="19.46" as="geometry" />
        </mxCell>
        <mxCell id="KkU-2ouMoLhyCoNQwxfl-64" value="&lt;font style=&quot;font-size: 13px;&quot; face=&quot;Comic Sans MS&quot;&gt;Worker SLMs&lt;/font&gt;" style="whiteSpace=wrap;html=1;fillColor=none;strokeColor=none;fontFamily=Helvetica;fontSize=16;" vertex="1" parent="1">
          <mxGeometry x="3407.95" y="1128.2600000000002" width="106.54" height="19.46" as="geometry" />
        </mxCell>
        <mxCell id="KkU-2ouMoLhyCoNQwxfl-66" value="&lt;div&gt;&lt;font style=&quot;font-size: 14px;&quot;&gt;Latency-aware Parallel Execution&amp;nbsp;&lt;/font&gt;&lt;/div&gt;&lt;div&gt;&lt;font style=&quot;font-size: 14px;&quot;&gt;Early Termination&lt;/font&gt;&lt;/div&gt;" style="rounded=1;whiteSpace=wrap;html=1;fillColor=#f8cecc;gradientColor=#ea6b66;strokeColor=#b85450;" vertex="1" parent="1">
          <mxGeometry x="3326.22" y="1435.5100000000002" width="220" height="82.02" as="geometry" />
        </mxCell>
        <mxCell id="KkU-2ouMoLhyCoNQwxfl-67" value="" style="group" connectable="0" vertex="1" parent="1">
          <mxGeometry x="3076.22" y="1097.5300000000002" width="241.30000000000018" height="323.48" as="geometry" />
        </mxCell>
        <mxCell id="KkU-2ouMoLhyCoNQwxfl-68" value="" style="rounded=1;whiteSpace=wrap;html=1;" vertex="1" parent="KkU-2ouMoLhyCoNQwxfl-67">
          <mxGeometry width="190" height="71.19" as="geometry" />
        </mxCell>
        <mxCell id="KkU-2ouMoLhyCoNQwxfl-69" value="" style="rounded=0;whiteSpace=wrap;html=1;fillColor=#6d8764;strokeColor=#3A5431;fontColor=#ffffff;rotation=90;" vertex="1" parent="KkU-2ouMoLhyCoNQwxfl-67">
          <mxGeometry x="90" y="-32.660000000000025" width="20" height="160" as="geometry" />
        </mxCell>
        <mxCell id="KkU-2ouMoLhyCoNQwxfl-70" value="" style="rounded=0;whiteSpace=wrap;html=1;fillColor=#d0cee2;strokeColor=#56517e;rotation=90;" vertex="1" parent="KkU-2ouMoLhyCoNQwxfl-67">
          <mxGeometry x="95" y="-47.900000000000034" width="10" height="160" as="geometry" />
        </mxCell>
        <mxCell id="KkU-2ouMoLhyCoNQwxfl-71" value="" style="group" connectable="0" vertex="1" parent="KkU-2ouMoLhyCoNQwxfl-67">
          <mxGeometry x="11.300000000000182" y="11.739999999999995" width="230" height="311.74" as="geometry" />
        </mxCell>
        <mxCell id="KkU-2ouMoLhyCoNQwxfl-72" value="" style="rounded=1;whiteSpace=wrap;html=1;" vertex="1" parent="KkU-2ouMoLhyCoNQwxfl-71">
          <mxGeometry width="190" height="71.19" as="geometry" />
        </mxCell>
        <mxCell id="KkU-2ouMoLhyCoNQwxfl-73" value="" style="rounded=0;whiteSpace=wrap;html=1;fillColor=#6d8764;strokeColor=#3A5431;fontColor=#ffffff;rotation=90;" vertex="1" parent="KkU-2ouMoLhyCoNQwxfl-71">
          <mxGeometry x="90" y="-32.660000000000025" width="20" height="160" as="geometry" />
        </mxCell>
        <mxCell id="KkU-2ouMoLhyCoNQwxfl-74" value="" style="rounded=0;whiteSpace=wrap;html=1;fillColor=#d0cee2;strokeColor=#56517e;rotation=90;" vertex="1" parent="KkU-2ouMoLhyCoNQwxfl-71">
          <mxGeometry x="95" y="-47.900000000000034" width="10" height="160" as="geometry" />
        </mxCell>
        <mxCell id="KkU-2ouMoLhyCoNQwxfl-75" value="" style="group" connectable="0" vertex="1" parent="KkU-2ouMoLhyCoNQwxfl-71">
          <mxGeometry x="10" y="11.739999999999995" width="220" height="300" as="geometry" />
        </mxCell>
        <mxCell id="KkU-2ouMoLhyCoNQwxfl-76" value="" style="rounded=1;whiteSpace=wrap;html=1;" vertex="1" parent="KkU-2ouMoLhyCoNQwxfl-75">
          <mxGeometry width="190" height="71.19" as="geometry" />
        </mxCell>
        <mxCell id="KkU-2ouMoLhyCoNQwxfl-77" value="" style="rounded=0;whiteSpace=wrap;html=1;fillColor=#d0cee2;strokeColor=#56517e;rotation=90;" vertex="1" parent="KkU-2ouMoLhyCoNQwxfl-75">
          <mxGeometry x="95" y="-47.900000000000034" width="10" height="160" as="geometry" />
        </mxCell>
        <mxCell id="KkU-2ouMoLhyCoNQwxfl-78" value="" style="rounded=0;whiteSpace=wrap;html=1;fillColor=#d5e8d4;strokeColor=#82b366;rotation=90;gradientColor=#97d077;" vertex="1" parent="KkU-2ouMoLhyCoNQwxfl-75">
          <mxGeometry x="90" y="-33.48000000000002" width="20" height="160" as="geometry" />
        </mxCell>
        <mxCell id="KkU-2ouMoLhyCoNQwxfl-79" value="&lt;font style=&quot;font-size: 13px;&quot; face=&quot;Comic Sans MS&quot;&gt;Task-Chunk prompt&lt;/font&gt;" style="whiteSpace=wrap;html=1;fillColor=none;strokeColor=none;fontFamily=Helvetica;fontSize=16;" vertex="1" parent="KkU-2ouMoLhyCoNQwxfl-75">
          <mxGeometry x="14.36" width="171.28" height="19.46" as="geometry" />
        </mxCell>
        <mxCell id="KkU-2ouMoLhyCoNQwxfl-80" value="" style="group" connectable="0" vertex="1" parent="1">
          <mxGeometry x="3076.22" y="1217.5300000000002" width="236.9500000000001" height="163.48000000000002" as="geometry" />
        </mxCell>
        <mxCell id="KkU-2ouMoLhyCoNQwxfl-81" value="" style="rounded=1;whiteSpace=wrap;html=1;" vertex="1" parent="KkU-2ouMoLhyCoNQwxfl-80">
          <mxGeometry width="190" height="71.19" as="geometry" />
        </mxCell>
        <mxCell id="KkU-2ouMoLhyCoNQwxfl-82" value="" style="rounded=0;whiteSpace=wrap;html=1;fillColor=#6d8764;strokeColor=#3A5431;fontColor=#ffffff;rotation=90;" vertex="1" parent="KkU-2ouMoLhyCoNQwxfl-80">
          <mxGeometry x="90" y="-32.660000000000025" width="20" height="160" as="geometry" />
        </mxCell>
        <mxCell id="KkU-2ouMoLhyCoNQwxfl-83" value="" style="rounded=0;whiteSpace=wrap;html=1;fillColor=#d0cee2;strokeColor=#56517e;rotation=90;" vertex="1" parent="KkU-2ouMoLhyCoNQwxfl-80">
          <mxGeometry x="95" y="-47.900000000000034" width="10" height="160" as="geometry" />
        </mxCell>
        <mxCell id="KkU-2ouMoLhyCoNQwxfl-84" value="" style="group" connectable="0" vertex="1" parent="KkU-2ouMoLhyCoNQwxfl-80">
          <mxGeometry x="11.300000000000182" y="11.739999999999995" width="225.64999999999992" height="151.74" as="geometry" />
        </mxCell>
        <mxCell id="KkU-2ouMoLhyCoNQwxfl-85" value="" style="rounded=1;whiteSpace=wrap;html=1;" vertex="1" parent="KkU-2ouMoLhyCoNQwxfl-84">
          <mxGeometry width="190" height="71.19" as="geometry" />
        </mxCell>
        <mxCell id="KkU-2ouMoLhyCoNQwxfl-86" value="" style="rounded=0;whiteSpace=wrap;html=1;fillColor=#6d8764;strokeColor=#3A5431;fontColor=#ffffff;rotation=90;" vertex="1" parent="KkU-2ouMoLhyCoNQwxfl-84">
          <mxGeometry x="90" y="-32.660000000000025" width="20" height="160" as="geometry" />
        </mxCell>
        <mxCell id="KkU-2ouMoLhyCoNQwxfl-87" value="" style="rounded=0;whiteSpace=wrap;html=1;fillColor=#d0cee2;strokeColor=#56517e;rotation=90;" vertex="1" parent="KkU-2ouMoLhyCoNQwxfl-84">
          <mxGeometry x="95" y="-47.900000000000034" width="10" height="160" as="geometry" />
        </mxCell>
        <mxCell id="KkU-2ouMoLhyCoNQwxfl-88" value="" style="group" connectable="0" vertex="1" parent="KkU-2ouMoLhyCoNQwxfl-84">
          <mxGeometry x="10" y="11.739999999999995" width="215.64999999999992" height="140" as="geometry" />
        </mxCell>
        <mxCell id="KkU-2ouMoLhyCoNQwxfl-89" value="" style="rounded=1;whiteSpace=wrap;html=1;" vertex="1" parent="KkU-2ouMoLhyCoNQwxfl-88">
          <mxGeometry width="190" height="71.19" as="geometry" />
        </mxCell>
        <mxCell id="KkU-2ouMoLhyCoNQwxfl-90" value="" style="rounded=0;whiteSpace=wrap;html=1;fillColor=#6d8764;strokeColor=#3A5431;fontColor=#ffffff;rotation=90;" vertex="1" parent="KkU-2ouMoLhyCoNQwxfl-88">
          <mxGeometry x="90" y="-32.660000000000025" width="20" height="160" as="geometry" />
        </mxCell>
        <mxCell id="KkU-2ouMoLhyCoNQwxfl-91" value="" style="rounded=0;whiteSpace=wrap;html=1;fillColor=#d0cee2;strokeColor=#56517e;rotation=90;" vertex="1" parent="KkU-2ouMoLhyCoNQwxfl-88">
          <mxGeometry x="95" y="-47.900000000000034" width="10" height="160" as="geometry" />
        </mxCell>
        <mxCell id="KkU-2ouMoLhyCoNQwxfl-92" value="" style="rounded=0;whiteSpace=wrap;html=1;fillColor=#d5e8d4;strokeColor=#82b366;rotation=90;gradientColor=#97d077;" vertex="1" parent="KkU-2ouMoLhyCoNQwxfl-88">
          <mxGeometry x="90" y="-32.660000000000025" width="20" height="160" as="geometry" />
        </mxCell>
        <mxCell id="KkU-2ouMoLhyCoNQwxfl-93" value="&lt;font style=&quot;font-size: 13px;&quot; face=&quot;Comic Sans MS&quot;&gt;Task-Chunk prompt&lt;/font&gt;" style="whiteSpace=wrap;html=1;fillColor=none;strokeColor=none;fontFamily=Helvetica;fontSize=16;" vertex="1" parent="KkU-2ouMoLhyCoNQwxfl-88">
          <mxGeometry x="9.359999999999673" width="171.28" height="19.46" as="geometry" />
        </mxCell>
        <mxCell id="KkU-2ouMoLhyCoNQwxfl-94" value="" style="group" connectable="0" vertex="1" parent="1">
          <mxGeometry x="3076.22" y="1327.5300000000002" width="211.30000000000018" height="150.82" as="geometry" />
        </mxCell>
        <mxCell id="KkU-2ouMoLhyCoNQwxfl-95" value="" style="rounded=1;whiteSpace=wrap;html=1;" vertex="1" parent="KkU-2ouMoLhyCoNQwxfl-94">
          <mxGeometry width="190" height="71.19" as="geometry" />
        </mxCell>
        <mxCell id="KkU-2ouMoLhyCoNQwxfl-96" value="" style="rounded=0;whiteSpace=wrap;html=1;fillColor=#6d8764;strokeColor=#3A5431;fontColor=#ffffff;rotation=90;" vertex="1" parent="KkU-2ouMoLhyCoNQwxfl-94">
          <mxGeometry x="90" y="-32.660000000000025" width="20" height="160" as="geometry" />
        </mxCell>
        <mxCell id="KkU-2ouMoLhyCoNQwxfl-97" value="" style="rounded=0;whiteSpace=wrap;html=1;fillColor=#d0cee2;strokeColor=#56517e;rotation=90;" vertex="1" parent="KkU-2ouMoLhyCoNQwxfl-94">
          <mxGeometry x="95" y="-47.900000000000034" width="10" height="160" as="geometry" />
        </mxCell>
        <mxCell id="KkU-2ouMoLhyCoNQwxfl-98" value="" style="group" connectable="0" vertex="1" parent="KkU-2ouMoLhyCoNQwxfl-94">
          <mxGeometry x="11.300000000000182" y="11.739999999999995" width="200" height="139.07999999999998" as="geometry" />
        </mxCell>
        <mxCell id="KkU-2ouMoLhyCoNQwxfl-99" value="" style="rounded=1;whiteSpace=wrap;html=1;" vertex="1" parent="KkU-2ouMoLhyCoNQwxfl-98">
          <mxGeometry width="190" height="71.19" as="geometry" />
        </mxCell>
        <mxCell id="KkU-2ouMoLhyCoNQwxfl-100" value="" style="rounded=0;whiteSpace=wrap;html=1;fillColor=#6d8764;strokeColor=#3A5431;fontColor=#ffffff;rotation=90;" vertex="1" parent="KkU-2ouMoLhyCoNQwxfl-98">
          <mxGeometry x="90" y="-32.660000000000025" width="20" height="160" as="geometry" />
        </mxCell>
        <mxCell id="KkU-2ouMoLhyCoNQwxfl-101" value="" style="rounded=0;whiteSpace=wrap;html=1;fillColor=#d0cee2;strokeColor=#56517e;rotation=90;" vertex="1" parent="KkU-2ouMoLhyCoNQwxfl-98">
          <mxGeometry x="95" y="-47.900000000000034" width="10" height="160" as="geometry" />
        </mxCell>
        <mxCell id="KkU-2ouMoLhyCoNQwxfl-102" value="" style="group" connectable="0" vertex="1" parent="KkU-2ouMoLhyCoNQwxfl-98">
          <mxGeometry x="10" y="11.739999999999995" width="190" height="127.33999999999997" as="geometry" />
        </mxCell>
        <mxCell id="KkU-2ouMoLhyCoNQwxfl-103" value="" style="rounded=1;whiteSpace=wrap;html=1;" vertex="1" parent="KkU-2ouMoLhyCoNQwxfl-102">
          <mxGeometry width="190" height="71.19" as="geometry" />
        </mxCell>
        <mxCell id="KkU-2ouMoLhyCoNQwxfl-104" value="" style="rounded=0;whiteSpace=wrap;html=1;fillColor=#6d8764;strokeColor=#3A5431;fontColor=#ffffff;rotation=90;" vertex="1" parent="KkU-2ouMoLhyCoNQwxfl-102">
          <mxGeometry x="90" y="-32.660000000000025" width="20" height="160" as="geometry" />
        </mxCell>
        <mxCell id="KkU-2ouMoLhyCoNQwxfl-105" value="" style="rounded=0;whiteSpace=wrap;html=1;fillColor=#d0cee2;strokeColor=#56517e;rotation=90;" vertex="1" parent="KkU-2ouMoLhyCoNQwxfl-102">
          <mxGeometry x="95" y="-47.900000000000034" width="10" height="160" as="geometry" />
        </mxCell>
        <mxCell id="KkU-2ouMoLhyCoNQwxfl-106" value="" style="rounded=0;whiteSpace=wrap;html=1;fillColor=#d5e8d4;strokeColor=#82b366;rotation=90;gradientColor=#97d077;" vertex="1" parent="KkU-2ouMoLhyCoNQwxfl-102">
          <mxGeometry x="90" y="-32.660000000000025" width="20" height="160" as="geometry" />
        </mxCell>
        <mxCell id="KkU-2ouMoLhyCoNQwxfl-107" value="&lt;font style=&quot;font-size: 13px;&quot; face=&quot;Comic Sans MS&quot;&gt;Task-Chunk prompt&lt;/font&gt;" style="whiteSpace=wrap;html=1;fillColor=none;strokeColor=none;fontFamily=Helvetica;fontSize=16;" vertex="1" parent="KkU-2ouMoLhyCoNQwxfl-102">
          <mxGeometry x="9.359999999999673" width="171.28" height="19.46" as="geometry" />
        </mxCell>
        <mxCell id="KkU-2ouMoLhyCoNQwxfl-109" value="" style="whiteSpace=wrap;html=1;shape=mxgraph.basic.document;opacity=50;" vertex="1" parent="1">
          <mxGeometry x="2816.22" y="1508.44" width="91.3" height="110.91" as="geometry" />
        </mxCell>
        <mxCell id="KkU-2ouMoLhyCoNQwxfl-110" value="" style="whiteSpace=wrap;html=1;shape=mxgraph.basic.document;opacity=50;" vertex="1" parent="1">
          <mxGeometry x="2831.22" y="1518.44" width="91.3" height="110.91" as="geometry" />
        </mxCell>
        <mxCell id="KkU-2ouMoLhyCoNQwxfl-111" value="" style="whiteSpace=wrap;html=1;shape=mxgraph.basic.document;opacity=50;" vertex="1" parent="1">
          <mxGeometry x="2847.52" y="1527.5300000000002" width="91.3" height="110.91" as="geometry" />
        </mxCell>
        <mxCell id="KkU-2ouMoLhyCoNQwxfl-112" value="" style="endArrow=none;dashed=1;html=1;dashPattern=1 3;strokeWidth=2;rounded=0;exitX=0.993;exitY=0.556;exitDx=0;exitDy=0;exitPerimeter=0;entryX=0.036;entryY=0.556;entryDx=0;entryDy=0;entryPerimeter=0;" edge="1" parent="1">
          <mxGeometry width="50" height="50" relative="1" as="geometry">
            <mxPoint x="3443.38839" y="1197.6178800000002" as="sourcePoint" />
            <mxPoint x="3482.8582799999995" y="1197.6178800000002" as="targetPoint" />
          </mxGeometry>
        </mxCell>
        <mxCell id="KkU-2ouMoLhyCoNQwxfl-113" value="" style="endArrow=none;dashed=1;html=1;dashPattern=1 3;strokeWidth=2;rounded=0;exitX=0.993;exitY=0.556;exitDx=0;exitDy=0;exitPerimeter=0;entryX=0.036;entryY=0.556;entryDx=0;entryDy=0;entryPerimeter=0;" edge="1" parent="1">
          <mxGeometry width="50" height="50" relative="1" as="geometry">
            <mxPoint x="3443.39" y="1265.7700000000002" as="sourcePoint" />
            <mxPoint x="3482.39" y="1265.7700000000002" as="targetPoint" />
          </mxGeometry>
        </mxCell>
        <mxCell id="KkU-2ouMoLhyCoNQwxfl-114" value="" style="endArrow=classic;html=1;rounded=0;exitX=0;exitY=0;exitDx=0;exitDy=0;fontColor=light-dark(#6d8764, #ededed);strokeColor=#000000;strokeWidth=2;fillColor=#d0cee2;" edge="1" parent="1">
          <mxGeometry width="50" height="50" relative="1" as="geometry">
            <mxPoint x="3306.22" y="1156.3700000000003" as="sourcePoint" />
            <mxPoint x="3358.4199999999996" y="1156.9100000000003" as="targetPoint" />
            <Array as="points" />
          </mxGeometry>
        </mxCell>
        <mxCell id="KkU-2ouMoLhyCoNQwxfl-115" value="" style="endArrow=classic;html=1;rounded=0;exitX=0;exitY=0;exitDx=0;exitDy=0;fontColor=light-dark(#6d8764, #ededed);strokeColor=#000000;strokeWidth=2;fillColor=#d0cee2;" edge="1" parent="1">
          <mxGeometry width="50" height="50" relative="1" as="geometry">
            <mxPoint x="3306.22" y="1187.0700000000002" as="sourcePoint" />
            <mxPoint x="3358.4199999999996" y="1187.6100000000001" as="targetPoint" />
            <Array as="points" />
          </mxGeometry>
        </mxCell>
        <mxCell id="KkU-2ouMoLhyCoNQwxfl-116" value="" style="endArrow=classic;html=1;rounded=0;exitX=0;exitY=0;exitDx=0;exitDy=0;fontColor=light-dark(#6d8764, #ededed);strokeColor=#000000;strokeWidth=2;fillColor=#d0cee2;" edge="1" parent="1">
          <mxGeometry width="50" height="50" relative="1" as="geometry">
            <mxPoint x="3306.22" y="1217.5300000000002" as="sourcePoint" />
            <mxPoint x="3358.4199999999996" y="1218.0700000000002" as="targetPoint" />
            <Array as="points" />
          </mxGeometry>
        </mxCell>
        <mxCell id="KkU-2ouMoLhyCoNQwxfl-118" value="" style="whiteSpace=wrap;strokeWidth=2;fontSize=18;strokeColor=none;rounded=1;shadow=1;fillColor=#fad9d5;spacingTop=200;fontFamily=Lucida Console;align=center;verticalAlign=middle;labelPosition=center;verticalLabelPosition=middle;labelBackgroundColor=none;labelBorderColor=none;textShadow=0;spacingBottom=0;spacingLeft=0;" vertex="1" parent="1">
          <mxGeometry x="2390" y="1130" width="350" height="230.91" as="geometry" />
        </mxCell>
        <mxCell id="KkU-2ouMoLhyCoNQwxfl-119" value="&lt;h6&gt;&lt;span style=&quot;color: rgb(51, 51, 51); font-family: &amp;quot;Comic Sans MS&amp;quot;; font-weight: 400; text-align: center; text-wrap-mode: nowrap;&quot;&gt;&lt;font style=&quot;font-size: 18px;&quot;&gt;Step3. Aggregate Output&lt;/font&gt;&lt;/span&gt;&lt;/h6&gt;" style="rounded=1;whiteSpace=wrap;html=1;fillColor=none;strokeColor=none;gradientColor=none;align=left;labelBackgroundColor=none;" vertex="1" parent="1">
          <mxGeometry x="2413" y="1141.63" width="220" height="25.78" as="geometry" />
        </mxCell>
        <mxCell id="KkU-2ouMoLhyCoNQwxfl-120" value="" style="group" connectable="0" vertex="1" parent="1">
          <mxGeometry x="2370" y="1236.5900000000001" width="210" height="70" as="geometry" />
        </mxCell>
        <mxCell id="KkU-2ouMoLhyCoNQwxfl-121" value="" style="whiteSpace=wrap;html=1;shape=mxgraph.basic.roundRectCallout;dx=30;dy=15;size=5;boundedLbl=1;strokeColor=none;fillColor=#f5f5f5;fontColor=#333333;" vertex="1" parent="KkU-2ouMoLhyCoNQwxfl-120">
          <mxGeometry x="40" width="100" height="58.62" as="geometry" />
        </mxCell>
        <mxCell id="KkU-2ouMoLhyCoNQwxfl-122" value="&lt;div style=&quot;line-height: 0%;&quot;&gt;&lt;h1 style=&quot;text-align: left; margin-top: 0px;&quot;&gt;&lt;font face=&quot;Comic Sans MS&quot;&gt;&lt;span style=&quot;font-size: 14px; font-weight: 400;&quot;&gt;&lt;i style=&quot;line-height: 160%;&quot;&gt;output&lt;/i&gt;&lt;/span&gt;&lt;/font&gt;&lt;/h1&gt;&lt;/div&gt;" style="rounded=0;whiteSpace=wrap;html=1;fillColor=none;strokeColor=none;fontStyle=0" vertex="1" parent="KkU-2ouMoLhyCoNQwxfl-120">
          <mxGeometry x="32" y="13.32" width="116" height="31.98" as="geometry" />
        </mxCell>
        <mxCell id="KkU-2ouMoLhyCoNQwxfl-123" value="" style="endArrow=classic;html=1;rounded=0;exitX=0.5;exitY=1;exitDx=0;exitDy=0;" edge="1" parent="KkU-2ouMoLhyCoNQwxfl-120">
          <mxGeometry width="50" height="50" relative="1" as="geometry">
            <mxPoint x="210" y="18.91999999999996" as="sourcePoint" />
            <mxPoint x="150" y="19.91999999999996" as="targetPoint" />
            <Array as="points" />
          </mxGeometry>
        </mxCell>
        <mxCell id="KkU-2ouMoLhyCoNQwxfl-124" value="" style="group" connectable="0" vertex="1" parent="1">
          <mxGeometry x="2583.67" y="1213.41" width="135.1" height="79.09" as="geometry" />
        </mxCell>
        <mxCell id="KkU-2ouMoLhyCoNQwxfl-125" value="" style="shape=mxgraph.networks2.icon;aspect=fixed;fillColor=#EDEDED;strokeColor=#000000;gradientColor=#5B6163;network2IconShadow=1;network2bgFillColor=none;network2Icon=mxgraph.networks2.laptop;network2IconW=1;network2IconH=0.5734;" vertex="1" parent="KkU-2ouMoLhyCoNQwxfl-124">
          <mxGeometry y="11.983333333333334" width="114.62959165942657" height="65.7306689834926" as="geometry" />
        </mxCell>
        <mxCell id="KkU-2ouMoLhyCoNQwxfl-126" value="&lt;font style=&quot;font-size: 13px;&quot; face=&quot;Comic Sans MS&quot;&gt;Master&lt;/font&gt;&lt;div&gt;&lt;font style=&quot;font-size: 13px;&quot; face=&quot;Comic Sans MS&quot;&gt;SLM&lt;/font&gt;&lt;/div&gt;" style="whiteSpace=wrap;html=1;fillColor=none;strokeColor=none;fontFamily=Helvetica;fontSize=16;" vertex="1" parent="KkU-2ouMoLhyCoNQwxfl-124">
          <mxGeometry x="-0.2573851236529886" y="8.18278712121209" width="114.88697678307956" height="62.716409090909096" as="geometry" />
        </mxCell>
        <mxCell id="KkU-2ouMoLhyCoNQwxfl-127" value="&lt;font style=&quot;font-size: 13px;&quot; face=&quot;Comic Sans MS&quot;&gt;Formatted Json output&lt;/font&gt;" style="whiteSpace=wrap;html=1;fillColor=none;strokeColor=none;fontFamily=Helvetica;fontSize=16;" vertex="1" parent="1">
          <mxGeometry x="2833.669999999999" y="1172.5" width="163.28" height="19.46" as="geometry" />
        </mxCell>
        <mxCell id="KkU-2ouMoLhyCoNQwxfl-128" value="" style="endArrow=classic;html=1;rounded=0;exitX=0.5;exitY=1;exitDx=0;exitDy=0;" edge="1" parent="1">
          <mxGeometry width="50" height="50" relative="1" as="geometry">
            <mxPoint x="2821.37" y="1258.76" as="sourcePoint" />
            <mxPoint x="2710.87" y="1258.3400000000001" as="targetPoint" />
            <Array as="points" />
          </mxGeometry>
        </mxCell>
        <mxCell id="KkU-2ouMoLhyCoNQwxfl-129" value="" style="whiteSpace=wrap;html=1;shape=mxgraph.basic.document;opacity=50;" vertex="1" parent="1">
          <mxGeometry x="2858.5699999999997" y="1203.41" width="91.3" height="110.91" as="geometry" />
        </mxCell>
        <mxCell id="KkU-2ouMoLhyCoNQwxfl-130" value="" style="whiteSpace=wrap;html=1;shape=mxgraph.basic.document;opacity=50;" vertex="1" parent="1">
          <mxGeometry x="2873.5699999999997" y="1213.41" width="91.3" height="110.91" as="geometry" />
        </mxCell>
        <mxCell id="KkU-2ouMoLhyCoNQwxfl-131" value="" style="whiteSpace=wrap;html=1;shape=mxgraph.basic.document;opacity=50;" vertex="1" parent="1">
          <mxGeometry x="2889.87" y="1222.5" width="91.3" height="110.91" as="geometry" />
        </mxCell>
      </root>
    </mxGraphModel>
  </diagram>
  <diagram id="8LvW4Rk10XnroddC64YH" name="第 2 页">
    <mxGraphModel grid="0" page="0" gridSize="10" guides="1" tooltips="1" connect="1" arrows="1" fold="1" pageScale="1" pageWidth="827" pageHeight="1169" math="0" shadow="0">
      <root>
        <mxCell id="0" />
        <mxCell id="1" parent="0" />
      </root>
    </mxGraphModel>
  </diagram>
</mxfile>
